<?xml version="1.0" standalone="no"?>
<!DOCTYPE svg PUBLIC "-//W3C//DTD SVG 20010904//EN"
 "http://www.w3.org/TR/2001/REC-SVG-20010904/DTD/svg10.dtd">
<svg version="1.0" xmlns="http://www.w3.org/2000/svg"
 width="368.000000pt" height="461.000000pt" viewBox="0 0 368.000000 461.000000"
 preserveAspectRatio="xMidYMid meet">

<g transform="translate(0.000000,461.000000) scale(0.100000,-0.100000)"
fill="#000000" stroke="none">
<path d="M1755 4548 c-382 -252 -1102 -645 -1583 -864 l-173 -79 5 -160 c4
-88 11 -450 16 -805 11 -687 17 -787 56 -975 141 -669 575 -1214 1184 -1486
202 -90 494 -179 588 -179 56 0 268 55 408 105 133 47 358 159 469 232 471
311 785 784 900 1355 37 186 44 340 51 1173 l7 750 -124 54 c-68 30 -245 115
-394 189 -472 235 -822 433 -1295 734 -24 15 -28 14 -115 -44z m225 -183 c412
-259 1019 -587 1468 -792 l112 -52 0 -93 c-1 -206 -30 -1515 -35 -1538 -2 -14
-12 -68 -21 -120 -35 -204 -104 -403 -210 -610 -259 -503 -712 -846 -1328
-1005 -121 -32 -133 -31 -314 21 -597 172 -1030 525 -1282 1045 -100 208 -174
463 -199 684 -6 50 -15 369 -21 710 -5 341 -11 684 -12 763 l-3 144 145 66
c435 199 1135 581 1510 824 30 20 60 33 65 30 6 -3 62 -37 125 -77z"/>
<path d="M1585 4079 c-288 -200 -728 -440 -1123 -614 l-132 -58 0 -184 c0
-149 3 -183 14 -183 24 0 265 86 396 141 69 29 239 110 378 179 l252 128 0
-1294 c0 -712 -3 -1294 -7 -1294 -17 0 -206 135 -265 190 -178 163 -313 411
-370 679 -18 86 -21 143 -25 554 -3 251 -7 457 -10 457 -5 0 -357 -122 -362
-126 -8 -7 1 -377 14 -574 17 -235 32 -345 71 -489 85 -324 274 -621 539 -849
206 -177 489 -337 723 -407 l42 -13 0 1924 c0 1058 -1 1924 -2 1923 -2 0 -61
-41 -133 -90z"/>
<path d="M1970 2244 l0 -1925 23 6 c84 26 230 86 329 137 215 109 386 235 548
405 225 235 367 506 436 830 32 151 56 449 57 727 l2 230 -175 62 c-96 35
-180 63 -187 63 -9 1 -13 -116 -16 -476 -4 -514 -5 -521 -62 -698 -75 -229
-227 -446 -411 -587 -62 -48 -173 -118 -186 -118 -5 0 -8 583 -8 1295 0 712 2
1295 5 1295 3 0 68 -34 145 -75 271 -145 621 -298 818 -358 l82 -25 0 187 0
187 -112 49 c-394 170 -878 434 -1172 639 -59 42 -110 76 -112 76 -2 0 -4
-867 -4 -1926z"/>
</g>
</svg>
