<svg width="96" height="96" viewBox="0 0 96 96" fill="none" xmlns="http://www.w3.org/2000/svg">
<g clip-path="url(#clip0_41_17)">
<mask id="mask0_41_17" style="mask-type:luminance" maskUnits="userSpaceOnUse" x="0" y="0" width="96" height="96">
<path d="M0 0H96V96H0V0Z" fill="white"/>
</mask>
<g mask="url(#mask0_41_17)">
<path fill-rule="evenodd" clip-rule="evenodd" d="M48 0C74.5131 0 96 21.4869 96 48C96 74.5131 74.5131 96 48 96C21.4869 96 0 74.5131 0 48C0 21.4869 21.4869 0 48 0Z" fill="#F0B90B"/>
<path d="M26.3794 48L26.4137 60.6925L37.2 67.0354V74.4685L20.1052 64.4434V44.2903L26.3794 48ZM26.3794 35.3074V42.7028L20.0983 38.9897V31.5908L26.3794 27.8777L32.6914 31.5908L26.3829 35.3074H26.3794ZM41.7052 31.5908L47.9863 27.8777L54.2949 31.5908L47.9863 35.3074L41.7052 31.5908Z" fill="white"/>
<path d="M30.9189 58.0628V50.6297L37.2 54.3463V61.7417L30.9189 58.0628ZM41.7051 69.6994L47.9863 73.416L54.2949 69.6994V77.0948L47.9863 80.8114L41.7051 77.0948V69.6994ZM63.3051 31.5908L69.5863 27.8777L75.8949 31.5908V38.9897L69.5863 42.7028V35.3074L63.3051 31.5908ZM69.5863 60.6925L69.6206 48L75.8983 44.2834V64.44L58.8034 74.4651V67.0354L69.5863 60.6925Z" fill="white"/>
<path d="M65.0811 58.0628L58.8 61.7416V54.3462L65.0811 50.6296V58.0628Z" fill="white"/>
<path d="M65.0811 37.937L65.1154 45.3702L54.2983 51.713V64.4399L48.0206 68.1188L41.7394 64.4399V51.7165L30.9223 45.3702V37.937L37.2309 34.2239L47.9794 40.601L58.7966 34.2239L65.1051 37.937H65.0811ZM30.9189 25.2513L47.9829 15.1885L65.0811 25.2513L58.8 28.9645L47.9863 22.5873L37.2 28.9645L30.9189 25.2513Z" fill="white"/>
</g>
</g>
<defs>
<clipPath id="clip0_41_17">
<rect width="96" height="96" fill="white"/>
</clipPath>
</defs>
</svg>
